<mxfile host="app.diagrams.net" modified="2021-07-10T12:06:19.823Z" agent="5.0 (Windows NT 10.0; Win64; x64) AppleWebKit/537.36 (KHTML, like Gecko) Chrome/91.0.4472.124 Safari/537.36" etag="4MEaigXILybQaaSeylGJ" version="14.8.5" type="github" pages="3">
  <diagram name="Page-11" id="ljoylEiupxjUMEsUBS2t">
    <mxGraphModel dx="1385" dy="635" grid="1" gridSize="10" guides="1" tooltips="1" connect="1" arrows="1" fold="1" page="1" pageScale="1" pageWidth="827" pageHeight="1169" math="0" shadow="0">
      <root>
        <mxCell id="Z3HUHJbzBhtzZHHpnUnt-0" />
        <mxCell id="Z3HUHJbzBhtzZHHpnUnt-1" parent="Z3HUHJbzBhtzZHHpnUnt-0" />
        <mxCell id="Z3HUHJbzBhtzZHHpnUnt-2" value="" style="rounded=0;whiteSpace=wrap;html=1;strokeWidth=1;fillColor=#FFFFFF;" parent="Z3HUHJbzBhtzZHHpnUnt-1" vertex="1">
          <mxGeometry x="160" y="190" width="600" height="290" as="geometry" />
        </mxCell>
        <mxCell id="Z3HUHJbzBhtzZHHpnUnt-4" value="哈希1234" style="rounded=0;whiteSpace=wrap;html=1;strokeWidth=1;fillColor=#FFFFFF;" parent="Z3HUHJbzBhtzZHHpnUnt-1" vertex="1">
          <mxGeometry x="420" y="230" width="80" height="30" as="geometry" />
        </mxCell>
        <mxCell id="Z3HUHJbzBhtzZHHpnUnt-5" value="哈希12" style="rounded=0;whiteSpace=wrap;html=1;strokeWidth=1;fillColor=#FFFFFF;" parent="Z3HUHJbzBhtzZHHpnUnt-1" vertex="1">
          <mxGeometry x="310" y="290" width="80" height="30" as="geometry" />
        </mxCell>
        <mxCell id="Z3HUHJbzBhtzZHHpnUnt-6" value="哈希34" style="rounded=0;whiteSpace=wrap;html=1;strokeWidth=1;fillColor=#FFFFFF;" parent="Z3HUHJbzBhtzZHHpnUnt-1" vertex="1">
          <mxGeometry x="540" y="290" width="80" height="30" as="geometry" />
        </mxCell>
        <mxCell id="Z3HUHJbzBhtzZHHpnUnt-7" value="哈希1" style="rounded=0;whiteSpace=wrap;html=1;strokeWidth=1;fillColor=#FFFFFF;" parent="Z3HUHJbzBhtzZHHpnUnt-1" vertex="1">
          <mxGeometry x="250" y="360" width="80" height="30" as="geometry" />
        </mxCell>
        <mxCell id="Z3HUHJbzBhtzZHHpnUnt-8" value="哈希2" style="rounded=0;whiteSpace=wrap;html=1;strokeWidth=1;fillColor=#FFFFFF;" parent="Z3HUHJbzBhtzZHHpnUnt-1" vertex="1">
          <mxGeometry x="370" y="360" width="80" height="30" as="geometry" />
        </mxCell>
        <mxCell id="Z3HUHJbzBhtzZHHpnUnt-9" value="交易1" style="rounded=0;whiteSpace=wrap;html=1;strokeWidth=1;fillColor=#FFFFFF;" parent="Z3HUHJbzBhtzZHHpnUnt-1" vertex="1">
          <mxGeometry x="250" y="430" width="80" height="30" as="geometry" />
        </mxCell>
        <mxCell id="Z3HUHJbzBhtzZHHpnUnt-10" value="交易2" style="rounded=0;whiteSpace=wrap;html=1;strokeWidth=1;fillColor=#FFFFFF;" parent="Z3HUHJbzBhtzZHHpnUnt-1" vertex="1">
          <mxGeometry x="370" y="430" width="80" height="30" as="geometry" />
        </mxCell>
        <mxCell id="Z3HUHJbzBhtzZHHpnUnt-11" value="哈希3" style="rounded=0;whiteSpace=wrap;html=1;strokeWidth=1;fillColor=#FFFFFF;" parent="Z3HUHJbzBhtzZHHpnUnt-1" vertex="1">
          <mxGeometry x="480" y="360" width="80" height="30" as="geometry" />
        </mxCell>
        <mxCell id="Z3HUHJbzBhtzZHHpnUnt-12" value="哈希4" style="rounded=0;whiteSpace=wrap;html=1;strokeWidth=1;fillColor=#FFFFFF;" parent="Z3HUHJbzBhtzZHHpnUnt-1" vertex="1">
          <mxGeometry x="600" y="360" width="80" height="30" as="geometry" />
        </mxCell>
        <mxCell id="Z3HUHJbzBhtzZHHpnUnt-13" value="交易3" style="rounded=0;whiteSpace=wrap;html=1;strokeWidth=1;fillColor=#FFFFFF;" parent="Z3HUHJbzBhtzZHHpnUnt-1" vertex="1">
          <mxGeometry x="480" y="430" width="80" height="30" as="geometry" />
        </mxCell>
        <mxCell id="Z3HUHJbzBhtzZHHpnUnt-14" value="交易4" style="rounded=0;whiteSpace=wrap;html=1;strokeWidth=1;fillColor=#FFFFFF;" parent="Z3HUHJbzBhtzZHHpnUnt-1" vertex="1">
          <mxGeometry x="600" y="430" width="80" height="30" as="geometry" />
        </mxCell>
        <mxCell id="Z3HUHJbzBhtzZHHpnUnt-15" value="" style="endArrow=classic;html=1;entryX=0.5;entryY=1;entryDx=0;entryDy=0;exitX=0.5;exitY=0;exitDx=0;exitDy=0;" parent="Z3HUHJbzBhtzZHHpnUnt-1" source="Z3HUHJbzBhtzZHHpnUnt-5" target="Z3HUHJbzBhtzZHHpnUnt-4" edge="1">
          <mxGeometry width="50" height="50" relative="1" as="geometry">
            <mxPoint x="410" y="350" as="sourcePoint" />
            <mxPoint x="460" y="300" as="targetPoint" />
          </mxGeometry>
        </mxCell>
        <mxCell id="Z3HUHJbzBhtzZHHpnUnt-16" value="" style="endArrow=classic;html=1;exitX=0.5;exitY=0;exitDx=0;exitDy=0;" parent="Z3HUHJbzBhtzZHHpnUnt-1" source="Z3HUHJbzBhtzZHHpnUnt-6" edge="1">
          <mxGeometry width="50" height="50" relative="1" as="geometry">
            <mxPoint x="410" y="350" as="sourcePoint" />
            <mxPoint x="460" y="260" as="targetPoint" />
          </mxGeometry>
        </mxCell>
        <mxCell id="Z3HUHJbzBhtzZHHpnUnt-17" value="" style="endArrow=classic;html=1;entryX=0.5;entryY=1;entryDx=0;entryDy=0;exitX=0.5;exitY=0;exitDx=0;exitDy=0;" parent="Z3HUHJbzBhtzZHHpnUnt-1" source="Z3HUHJbzBhtzZHHpnUnt-7" target="Z3HUHJbzBhtzZHHpnUnt-5" edge="1">
          <mxGeometry width="50" height="50" relative="1" as="geometry">
            <mxPoint x="410" y="350" as="sourcePoint" />
            <mxPoint x="460" y="300" as="targetPoint" />
          </mxGeometry>
        </mxCell>
        <mxCell id="Z3HUHJbzBhtzZHHpnUnt-18" value="" style="endArrow=classic;html=1;entryX=0.5;entryY=1;entryDx=0;entryDy=0;exitX=0.5;exitY=0;exitDx=0;exitDy=0;" parent="Z3HUHJbzBhtzZHHpnUnt-1" source="Z3HUHJbzBhtzZHHpnUnt-8" target="Z3HUHJbzBhtzZHHpnUnt-5" edge="1">
          <mxGeometry width="50" height="50" relative="1" as="geometry">
            <mxPoint x="410" y="350" as="sourcePoint" />
            <mxPoint x="460" y="300" as="targetPoint" />
          </mxGeometry>
        </mxCell>
        <mxCell id="Z3HUHJbzBhtzZHHpnUnt-20" value="" style="endArrow=classic;html=1;entryX=0.5;entryY=1;entryDx=0;entryDy=0;exitX=0.5;exitY=0;exitDx=0;exitDy=0;" parent="Z3HUHJbzBhtzZHHpnUnt-1" edge="1">
          <mxGeometry width="50" height="50" relative="1" as="geometry">
            <mxPoint x="520" y="360" as="sourcePoint" />
            <mxPoint x="580" y="320" as="targetPoint" />
          </mxGeometry>
        </mxCell>
        <mxCell id="Z3HUHJbzBhtzZHHpnUnt-21" value="" style="endArrow=classic;html=1;entryX=0.5;entryY=1;entryDx=0;entryDy=0;exitX=0.5;exitY=0;exitDx=0;exitDy=0;" parent="Z3HUHJbzBhtzZHHpnUnt-1" edge="1">
          <mxGeometry width="50" height="50" relative="1" as="geometry">
            <mxPoint x="640" y="360" as="sourcePoint" />
            <mxPoint x="580" y="320" as="targetPoint" />
          </mxGeometry>
        </mxCell>
        <mxCell id="Z3HUHJbzBhtzZHHpnUnt-22" value="" style="endArrow=classic;html=1;entryX=0.5;entryY=1;entryDx=0;entryDy=0;exitX=0.5;exitY=0;exitDx=0;exitDy=0;" parent="Z3HUHJbzBhtzZHHpnUnt-1" source="Z3HUHJbzBhtzZHHpnUnt-9" target="Z3HUHJbzBhtzZHHpnUnt-7" edge="1">
          <mxGeometry width="50" height="50" relative="1" as="geometry">
            <mxPoint x="270" y="470" as="sourcePoint" />
            <mxPoint x="320" y="420" as="targetPoint" />
          </mxGeometry>
        </mxCell>
        <mxCell id="Z3HUHJbzBhtzZHHpnUnt-23" value="" style="endArrow=classic;html=1;entryX=0.5;entryY=1;entryDx=0;entryDy=0;exitX=0.5;exitY=0;exitDx=0;exitDy=0;" parent="Z3HUHJbzBhtzZHHpnUnt-1" edge="1">
          <mxGeometry width="50" height="50" relative="1" as="geometry">
            <mxPoint x="409.5" y="430" as="sourcePoint" />
            <mxPoint x="409.5" y="390" as="targetPoint" />
          </mxGeometry>
        </mxCell>
        <mxCell id="Z3HUHJbzBhtzZHHpnUnt-24" value="" style="endArrow=classic;html=1;entryX=0.5;entryY=1;entryDx=0;entryDy=0;exitX=0.5;exitY=0;exitDx=0;exitDy=0;" parent="Z3HUHJbzBhtzZHHpnUnt-1" edge="1">
          <mxGeometry width="50" height="50" relative="1" as="geometry">
            <mxPoint x="519.96" y="430" as="sourcePoint" />
            <mxPoint x="519.96" y="390" as="targetPoint" />
          </mxGeometry>
        </mxCell>
        <mxCell id="Z3HUHJbzBhtzZHHpnUnt-25" value="" style="endArrow=classic;html=1;entryX=0.5;entryY=1;entryDx=0;entryDy=0;exitX=0.5;exitY=0;exitDx=0;exitDy=0;" parent="Z3HUHJbzBhtzZHHpnUnt-1" edge="1">
          <mxGeometry width="50" height="50" relative="1" as="geometry">
            <mxPoint x="639.46" y="430" as="sourcePoint" />
            <mxPoint x="639.46" y="390" as="targetPoint" />
          </mxGeometry>
        </mxCell>
        <mxCell id="Z3HUHJbzBhtzZHHpnUnt-26" value="区块体" style="rounded=0;whiteSpace=wrap;html=1;strokeWidth=0;fillColor=#B3B3B3;" parent="Z3HUHJbzBhtzZHHpnUnt-1" vertex="1">
          <mxGeometry x="160" y="190" width="80" height="30" as="geometry" />
        </mxCell>
        <mxCell id="0juleYaEX0Fr9LpmxcQQ-0" value="" style="rounded=0;whiteSpace=wrap;html=1;" vertex="1" parent="Z3HUHJbzBhtzZHHpnUnt-1">
          <mxGeometry x="160" y="90" width="600" height="80" as="geometry" />
        </mxCell>
        <mxCell id="0juleYaEX0Fr9LpmxcQQ-1" value="父区块哈希值" style="rounded=0;whiteSpace=wrap;html=1;strokeWidth=1;fillColor=#FFFFFF;" vertex="1" parent="Z3HUHJbzBhtzZHHpnUnt-1">
          <mxGeometry x="170" y="105" width="80" height="20" as="geometry" />
        </mxCell>
        <mxCell id="0juleYaEX0Fr9LpmxcQQ-2" value="区块体" style="rounded=0;whiteSpace=wrap;html=1;strokeWidth=0;fillColor=#B3B3B3;" vertex="1" parent="Z3HUHJbzBhtzZHHpnUnt-1">
          <mxGeometry x="160" y="140" width="80" height="30" as="geometry" />
        </mxCell>
        <mxCell id="0juleYaEX0Fr9LpmxcQQ-3" value="哈希12" style="rounded=0;whiteSpace=wrap;html=1;strokeWidth=1;fillColor=#FFFFFF;" vertex="1" parent="Z3HUHJbzBhtzZHHpnUnt-1">
          <mxGeometry x="420" y="105" width="80" height="20" as="geometry" />
        </mxCell>
        <mxCell id="0juleYaEX0Fr9LpmxcQQ-4" value="哈希12" style="rounded=0;whiteSpace=wrap;html=1;strokeWidth=1;fillColor=#FFFFFF;" vertex="1" parent="Z3HUHJbzBhtzZHHpnUnt-1">
          <mxGeometry x="300" y="105" width="80" height="20" as="geometry" />
        </mxCell>
        <mxCell id="0juleYaEX0Fr9LpmxcQQ-5" value="哈希12" style="rounded=0;whiteSpace=wrap;html=1;strokeWidth=1;fillColor=#FFFFFF;" vertex="1" parent="Z3HUHJbzBhtzZHHpnUnt-1">
          <mxGeometry x="670" y="105" width="80" height="20" as="geometry" />
        </mxCell>
        <mxCell id="0juleYaEX0Fr9LpmxcQQ-6" value="哈希12" style="rounded=0;whiteSpace=wrap;html=1;strokeWidth=1;fillColor=#FFFFFF;" vertex="1" parent="Z3HUHJbzBhtzZHHpnUnt-1">
          <mxGeometry x="550" y="105" width="80" height="20" as="geometry" />
        </mxCell>
        <mxCell id="0juleYaEX0Fr9LpmxcQQ-7" value="默克尔根" style="rounded=0;whiteSpace=wrap;html=1;strokeWidth=1;fillColor=#FFFFFF;" vertex="1" parent="Z3HUHJbzBhtzZHHpnUnt-1">
          <mxGeometry x="420" y="140" width="80" height="20" as="geometry" />
        </mxCell>
        <mxCell id="0juleYaEX0Fr9LpmxcQQ-8" value="父区块" style="rounded=0;whiteSpace=wrap;html=1;strokeWidth=1;fillColor=#FFFFFF;" vertex="1" parent="Z3HUHJbzBhtzZHHpnUnt-1">
          <mxGeometry x="40" y="100" width="60" height="60" as="geometry" />
        </mxCell>
        <mxCell id="0juleYaEX0Fr9LpmxcQQ-9" value="" style="endArrow=none;html=1;entryX=1;entryY=0.5;entryDx=0;entryDy=0;exitX=0;exitY=0.5;exitDx=0;exitDy=0;" edge="1" parent="Z3HUHJbzBhtzZHHpnUnt-1" source="0juleYaEX0Fr9LpmxcQQ-0" target="0juleYaEX0Fr9LpmxcQQ-8">
          <mxGeometry width="50" height="50" relative="1" as="geometry">
            <mxPoint x="400" y="270" as="sourcePoint" />
            <mxPoint x="450" y="220" as="targetPoint" />
          </mxGeometry>
        </mxCell>
        <mxCell id="0juleYaEX0Fr9LpmxcQQ-10" value="" style="endArrow=classic;html=1;entryX=0.5;entryY=1;entryDx=0;entryDy=0;exitX=0.5;exitY=0;exitDx=0;exitDy=0;" edge="1" parent="Z3HUHJbzBhtzZHHpnUnt-1" source="Z3HUHJbzBhtzZHHpnUnt-4" target="0juleYaEX0Fr9LpmxcQQ-7">
          <mxGeometry width="50" height="50" relative="1" as="geometry">
            <mxPoint x="400" y="260" as="sourcePoint" />
            <mxPoint x="450" y="210" as="targetPoint" />
          </mxGeometry>
        </mxCell>
      </root>
    </mxGraphModel>
  </diagram>
  <diagram id="QRlSKd4-OaoeOhJkRCQu" name="Page-2">
    <mxGraphModel dx="950" dy="435" grid="1" gridSize="10" guides="1" tooltips="1" connect="1" arrows="1" fold="1" page="1" pageScale="1" pageWidth="827" pageHeight="1169" math="0" shadow="0">
      <root>
        <mxCell id="EEgjwGo9ADza4z4V5F8g-0" />
        <mxCell id="EEgjwGo9ADza4z4V5F8g-1" parent="EEgjwGo9ADza4z4V5F8g-0" />
        <mxCell id="EEgjwGo9ADza4z4V5F8g-2" value="application" style="rounded=0;whiteSpace=wrap;html=1;" vertex="1" parent="EEgjwGo9ADza4z4V5F8g-1">
          <mxGeometry x="320" y="120" width="120" height="40" as="geometry" />
        </mxCell>
        <mxCell id="ChBJm3CEjAetdWOzjidL-0" value="naming" style="rounded=0;whiteSpace=wrap;html=1;" vertex="1" parent="EEgjwGo9ADza4z4V5F8g-1">
          <mxGeometry x="320" y="200" width="120" height="40" as="geometry" />
        </mxCell>
        <mxCell id="ChBJm3CEjAetdWOzjidL-1" value="merkledag" style="rounded=0;whiteSpace=wrap;html=1;" vertex="1" parent="EEgjwGo9ADza4z4V5F8g-1">
          <mxGeometry x="320" y="240" width="120" height="40" as="geometry" />
        </mxCell>
        <mxCell id="ChBJm3CEjAetdWOzjidL-2" value="routing" style="rounded=0;whiteSpace=wrap;html=1;" vertex="1" parent="EEgjwGo9ADza4z4V5F8g-1">
          <mxGeometry x="320" y="360" width="120" height="40" as="geometry" />
        </mxCell>
        <mxCell id="ChBJm3CEjAetdWOzjidL-3" value="network" style="rounded=0;whiteSpace=wrap;html=1;" vertex="1" parent="EEgjwGo9ADza4z4V5F8g-1">
          <mxGeometry x="320" y="400" width="120" height="40" as="geometry" />
        </mxCell>
        <mxCell id="ChBJm3CEjAetdWOzjidL-4" value="exchange" style="rounded=0;whiteSpace=wrap;html=1;" vertex="1" parent="EEgjwGo9ADza4z4V5F8g-1">
          <mxGeometry x="320" y="310" width="120" height="40" as="geometry" />
        </mxCell>
        <mxCell id="ChBJm3CEjAetdWOzjidL-5" value="" style="endArrow=none;dashed=1;html=1;dashPattern=1 3;strokeWidth=2;" edge="1" parent="EEgjwGo9ADza4z4V5F8g-1">
          <mxGeometry width="50" height="50" relative="1" as="geometry">
            <mxPoint x="200" y="180" as="sourcePoint" />
            <mxPoint x="600" y="180" as="targetPoint" />
          </mxGeometry>
        </mxCell>
        <mxCell id="ChBJm3CEjAetdWOzjidL-6" value="" style="endArrow=none;dashed=1;html=1;dashPattern=1 3;strokeWidth=2;" edge="1" parent="EEgjwGo9ADza4z4V5F8g-1">
          <mxGeometry width="50" height="50" relative="1" as="geometry">
            <mxPoint x="200" y="300" as="sourcePoint" />
            <mxPoint x="600" y="300" as="targetPoint" />
          </mxGeometry>
        </mxCell>
        <mxCell id="ChBJm3CEjAetdWOzjidL-8" value="&lt;div&gt;&lt;span&gt;&lt;font face=&quot;helvetica&quot;&gt;使用数据&lt;/font&gt;&lt;/span&gt;&lt;/div&gt;&lt;div&gt;&lt;span&gt;&lt;font face=&quot;helvetica&quot;&gt;Using the Data&lt;/font&gt;&lt;/span&gt;&lt;/div&gt;" style="text;whiteSpace=wrap;html=1;align=center;" vertex="1" parent="EEgjwGo9ADza4z4V5F8g-1">
          <mxGeometry x="490" y="120" width="100" height="40" as="geometry" />
        </mxCell>
        <mxCell id="ChBJm3CEjAetdWOzjidL-9" value="&lt;div&gt;&lt;font face=&quot;helvetica&quot;&gt;定义数据&lt;/font&gt;&lt;/div&gt;&lt;div&gt;&lt;font face=&quot;helvetica&quot;&gt;Defining the Data&lt;/font&gt;&lt;/div&gt;" style="text;whiteSpace=wrap;html=1;align=center;" vertex="1" parent="EEgjwGo9ADza4z4V5F8g-1">
          <mxGeometry x="490" y="220" width="100" height="40" as="geometry" />
        </mxCell>
        <mxCell id="ChBJm3CEjAetdWOzjidL-10" value="&lt;div&gt;&lt;font face=&quot;helvetica&quot;&gt;数据传输&lt;/font&gt;&lt;/div&gt;&lt;div&gt;&lt;font face=&quot;helvetica&quot;&gt;Moving the Data&lt;/font&gt;&lt;/div&gt;" style="text;whiteSpace=wrap;html=1;align=center;" vertex="1" parent="EEgjwGo9ADza4z4V5F8g-1">
          <mxGeometry x="490" y="360" width="100" height="40" as="geometry" />
        </mxCell>
        <mxCell id="ChBJm3CEjAetdWOzjidL-11" value="&lt;div style=&quot;color: rgb(0 , 0 , 0) ; font-family: &amp;#34;helvetica&amp;#34; ; font-size: 12px ; font-style: normal ; font-weight: 400 ; letter-spacing: normal ; text-align: center ; text-indent: 0px ; text-transform: none ; word-spacing: 0px ; background-color: rgb(248 , 249 , 250)&quot;&gt;IPNS&lt;/div&gt;" style="text;whiteSpace=wrap;html=1;" vertex="1" parent="EEgjwGo9ADza4z4V5F8g-1">
          <mxGeometry x="230" y="225" width="40" height="30" as="geometry" />
        </mxCell>
        <mxCell id="ChBJm3CEjAetdWOzjidL-12" value="&lt;div style=&quot;color: rgb(0 , 0 , 0) ; font-family: &amp;#34;helvetica&amp;#34; ; font-size: 12px ; font-style: normal ; font-weight: 400 ; letter-spacing: normal ; text-align: center ; text-indent: 0px ; text-transform: none ; word-spacing: 0px ; background-color: rgb(248 , 249 , 250)&quot;&gt;libp2p&lt;/div&gt;" style="text;whiteSpace=wrap;html=1;" vertex="1" parent="EEgjwGo9ADza4z4V5F8g-1">
          <mxGeometry x="230" y="365" width="40" height="30" as="geometry" />
        </mxCell>
      </root>
    </mxGraphModel>
  </diagram>
  <diagram id="V0U6Ask_n1lTgr8kO_gA" name="Page-3">
    <mxGraphModel dx="1185" dy="635" grid="1" gridSize="10" guides="1" tooltips="1" connect="1" arrows="1" fold="1" page="1" pageScale="1" pageWidth="827" pageHeight="1169" math="0" shadow="0">
      <root>
        <mxCell id="CQvP9DFuDNjqz4Xd3d7m-0" />
        <mxCell id="CQvP9DFuDNjqz4Xd3d7m-1" parent="CQvP9DFuDNjqz4Xd3d7m-0" />
        <mxCell id="CQvP9DFuDNjqz4Xd3d7m-2" value="" style="rounded=0;whiteSpace=wrap;html=1;" vertex="1" parent="CQvP9DFuDNjqz4Xd3d7m-1">
          <mxGeometry x="40" y="160" width="130" height="200" as="geometry" />
        </mxCell>
        <mxCell id="MTdiw1B8AtLcWL_jAtuP-0" value="&lt;span style=&quot;color: rgb(0 , 0 , 0) ; font-family: &amp;#34;helvetica&amp;#34; ; font-size: 12px ; font-style: normal ; font-weight: 400 ; letter-spacing: normal ; text-align: center ; text-indent: 0px ; text-transform: none ; word-spacing: 0px ; background-color: rgb(248 , 249 , 250) ; display: inline ; float: none&quot;&gt;Block #1&lt;/span&gt;" style="text;whiteSpace=wrap;html=1;" vertex="1" parent="CQvP9DFuDNjqz4Xd3d7m-1">
          <mxGeometry x="45" y="165" width="60" height="30" as="geometry" />
        </mxCell>
        <mxCell id="MTdiw1B8AtLcWL_jAtuP-1" value="" style="rounded=0;whiteSpace=wrap;html=1;" vertex="1" parent="CQvP9DFuDNjqz4Xd3d7m-1">
          <mxGeometry x="45" y="200" width="120" height="40" as="geometry" />
        </mxCell>
        <mxCell id="MTdiw1B8AtLcWL_jAtuP-2" value="&lt;span style=&quot;color: rgb(0 , 0 , 0) ; font-family: &amp;#34;helvetica&amp;#34; ; font-size: 12px ; font-style: normal ; font-weight: 400 ; letter-spacing: normal ; text-align: center ; text-indent: 0px ; text-transform: none ; word-spacing: 0px ; background-color: rgb(248 , 249 , 250) ; display: inline ; float: none&quot;&gt;CB&lt;/span&gt;" style="text;whiteSpace=wrap;html=1;" vertex="1" parent="CQvP9DFuDNjqz4Xd3d7m-1">
          <mxGeometry x="50" y="207" width="30" height="30" as="geometry" />
        </mxCell>
        <mxCell id="MTdiw1B8AtLcWL_jAtuP-3" value="&lt;span style=&quot;color: rgb(0 , 0 , 0) ; font-family: &amp;#34;helvetica&amp;#34; ; font-size: 12px ; font-style: normal ; font-weight: 400 ; letter-spacing: normal ; text-align: center ; text-indent: 0px ; text-transform: none ; word-spacing: 0px ; background-color: rgb(248 , 249 , 250) ; display: inline ; float: none&quot;&gt;50.0&lt;/span&gt;" style="text;whiteSpace=wrap;html=1;" vertex="1" parent="CQvP9DFuDNjqz4Xd3d7m-1">
          <mxGeometry x="90" y="207" width="30" height="30" as="geometry" />
        </mxCell>
        <mxCell id="MTdiw1B8AtLcWL_jAtuP-4" value="&lt;div style=&quot;text-align: center&quot;&gt;&lt;font face=&quot;helvetica&quot;&gt;OUT&lt;/font&gt;&lt;/div&gt;" style="text;whiteSpace=wrap;html=1;" vertex="1" parent="CQvP9DFuDNjqz4Xd3d7m-1">
          <mxGeometry x="132" y="207" width="28" height="30" as="geometry" />
        </mxCell>
        <mxCell id="MTdiw1B8AtLcWL_jAtuP-5" value="" style="endArrow=none;html=1;entryX=0.25;entryY=0;entryDx=0;entryDy=0;exitX=0.25;exitY=1;exitDx=0;exitDy=0;" edge="1" parent="CQvP9DFuDNjqz4Xd3d7m-1">
          <mxGeometry width="50" height="50" relative="1" as="geometry">
            <mxPoint x="80" y="240" as="sourcePoint" />
            <mxPoint x="80" y="200" as="targetPoint" />
          </mxGeometry>
        </mxCell>
        <mxCell id="MTdiw1B8AtLcWL_jAtuP-6" value="" style="endArrow=none;html=1;entryX=0.25;entryY=0;entryDx=0;entryDy=0;exitX=0.25;exitY=1;exitDx=0;exitDy=0;" edge="1" parent="CQvP9DFuDNjqz4Xd3d7m-1">
          <mxGeometry width="50" height="50" relative="1" as="geometry">
            <mxPoint x="125" y="240" as="sourcePoint" />
            <mxPoint x="125" y="200" as="targetPoint" />
          </mxGeometry>
        </mxCell>
        <mxCell id="MTdiw1B8AtLcWL_jAtuP-7" value="" style="rounded=0;whiteSpace=wrap;html=1;" vertex="1" parent="CQvP9DFuDNjqz4Xd3d7m-1">
          <mxGeometry x="218" y="160" width="130" height="200" as="geometry" />
        </mxCell>
        <mxCell id="MTdiw1B8AtLcWL_jAtuP-8" value="&lt;span style=&quot;color: rgb(0 , 0 , 0) ; font-family: &amp;#34;helvetica&amp;#34; ; font-size: 12px ; font-style: normal ; font-weight: 400 ; letter-spacing: normal ; text-align: center ; text-indent: 0px ; text-transform: none ; word-spacing: 0px ; background-color: rgb(248 , 249 , 250) ; display: inline ; float: none&quot;&gt;Block #2&lt;/span&gt;" style="text;whiteSpace=wrap;html=1;" vertex="1" parent="CQvP9DFuDNjqz4Xd3d7m-1">
          <mxGeometry x="223" y="165" width="60" height="30" as="geometry" />
        </mxCell>
        <mxCell id="MTdiw1B8AtLcWL_jAtuP-9" value="" style="rounded=0;whiteSpace=wrap;html=1;" vertex="1" parent="CQvP9DFuDNjqz4Xd3d7m-1">
          <mxGeometry x="223" y="200" width="120" height="40" as="geometry" />
        </mxCell>
        <mxCell id="MTdiw1B8AtLcWL_jAtuP-10" value="&lt;span style=&quot;color: rgb(0 , 0 , 0) ; font-family: &amp;#34;helvetica&amp;#34; ; font-size: 12px ; font-style: normal ; font-weight: 400 ; letter-spacing: normal ; text-align: center ; text-indent: 0px ; text-transform: none ; word-spacing: 0px ; background-color: rgb(248 , 249 , 250) ; display: inline ; float: none&quot;&gt;CB&lt;/span&gt;" style="text;whiteSpace=wrap;html=1;" vertex="1" parent="CQvP9DFuDNjqz4Xd3d7m-1">
          <mxGeometry x="228" y="207" width="30" height="30" as="geometry" />
        </mxCell>
        <mxCell id="MTdiw1B8AtLcWL_jAtuP-11" value="&lt;span style=&quot;color: rgb(0 , 0 , 0) ; font-family: &amp;#34;helvetica&amp;#34; ; font-size: 12px ; font-style: normal ; font-weight: 400 ; letter-spacing: normal ; text-align: center ; text-indent: 0px ; text-transform: none ; word-spacing: 0px ; background-color: rgb(248 , 249 , 250) ; display: inline ; float: none&quot;&gt;50.0&lt;/span&gt;" style="text;whiteSpace=wrap;html=1;" vertex="1" parent="CQvP9DFuDNjqz4Xd3d7m-1">
          <mxGeometry x="268" y="207" width="30" height="30" as="geometry" />
        </mxCell>
        <mxCell id="MTdiw1B8AtLcWL_jAtuP-12" value="&lt;div style=&quot;text-align: center&quot;&gt;&lt;font face=&quot;helvetica&quot;&gt;OUT&lt;/font&gt;&lt;/div&gt;" style="text;whiteSpace=wrap;html=1;" vertex="1" parent="CQvP9DFuDNjqz4Xd3d7m-1">
          <mxGeometry x="310" y="207" width="30" height="30" as="geometry" />
        </mxCell>
        <mxCell id="MTdiw1B8AtLcWL_jAtuP-13" value="" style="endArrow=none;html=1;entryX=0.25;entryY=0;entryDx=0;entryDy=0;exitX=0.25;exitY=1;exitDx=0;exitDy=0;" edge="1" parent="CQvP9DFuDNjqz4Xd3d7m-1">
          <mxGeometry width="50" height="50" relative="1" as="geometry">
            <mxPoint x="258" y="240" as="sourcePoint" />
            <mxPoint x="258" y="200" as="targetPoint" />
          </mxGeometry>
        </mxCell>
        <mxCell id="MTdiw1B8AtLcWL_jAtuP-14" value="" style="endArrow=none;html=1;entryX=0.25;entryY=0;entryDx=0;entryDy=0;exitX=0.25;exitY=1;exitDx=0;exitDy=0;" edge="1" parent="CQvP9DFuDNjqz4Xd3d7m-1">
          <mxGeometry width="50" height="50" relative="1" as="geometry">
            <mxPoint x="303" y="240" as="sourcePoint" />
            <mxPoint x="303" y="200" as="targetPoint" />
          </mxGeometry>
        </mxCell>
        <mxCell id="MTdiw1B8AtLcWL_jAtuP-15" value="" style="rounded=0;whiteSpace=wrap;html=1;" vertex="1" parent="CQvP9DFuDNjqz4Xd3d7m-1">
          <mxGeometry x="223" y="260" width="120" height="85" as="geometry" />
        </mxCell>
        <mxCell id="MTdiw1B8AtLcWL_jAtuP-16" value="&lt;span style=&quot;color: rgb(0 , 0 , 0) ; font-family: &amp;#34;helvetica&amp;#34; ; font-size: 12px ; font-style: normal ; font-weight: 400 ; letter-spacing: normal ; text-align: center ; text-indent: 0px ; text-transform: none ; word-spacing: 0px ; background-color: rgb(248 , 249 , 250) ; display: inline ; float: none&quot;&gt;IN&lt;/span&gt;" style="text;whiteSpace=wrap;html=1;" vertex="1" parent="CQvP9DFuDNjqz4Xd3d7m-1">
          <mxGeometry x="230" y="290" width="23" height="30" as="geometry" />
        </mxCell>
        <mxCell id="MTdiw1B8AtLcWL_jAtuP-17" value="&lt;span style=&quot;color: rgb(0 , 0 , 0) ; font-family: &amp;#34;helvetica&amp;#34; ; font-size: 12px ; font-style: normal ; font-weight: 400 ; letter-spacing: normal ; text-align: center ; text-indent: 0px ; text-transform: none ; word-spacing: 0px ; background-color: rgb(248 , 249 , 250) ; display: inline ; float: none&quot;&gt;8.70&lt;/span&gt;" style="text;whiteSpace=wrap;html=1;" vertex="1" parent="CQvP9DFuDNjqz4Xd3d7m-1">
          <mxGeometry x="268" y="272" width="30" height="30" as="geometry" />
        </mxCell>
        <mxCell id="MTdiw1B8AtLcWL_jAtuP-18" value="&lt;div style=&quot;text-align: center&quot;&gt;&lt;font face=&quot;helvetica&quot;&gt;OUT&lt;/font&gt;&lt;/div&gt;" style="text;whiteSpace=wrap;html=1;" vertex="1" parent="CQvP9DFuDNjqz4Xd3d7m-1">
          <mxGeometry x="310" y="272" width="30" height="30" as="geometry" />
        </mxCell>
        <mxCell id="MTdiw1B8AtLcWL_jAtuP-19" value="" style="endArrow=none;html=1;entryX=0.25;entryY=0;entryDx=0;entryDy=0;exitX=0.292;exitY=0.993;exitDx=0;exitDy=0;exitPerimeter=0;" edge="1" parent="CQvP9DFuDNjqz4Xd3d7m-1" source="MTdiw1B8AtLcWL_jAtuP-15">
          <mxGeometry width="50" height="50" relative="1" as="geometry">
            <mxPoint x="258" y="300" as="sourcePoint" />
            <mxPoint x="258" y="260" as="targetPoint" />
          </mxGeometry>
        </mxCell>
        <mxCell id="MTdiw1B8AtLcWL_jAtuP-20" value="" style="endArrow=none;html=1;entryX=0.25;entryY=0;entryDx=0;entryDy=0;exitX=0.672;exitY=1.007;exitDx=0;exitDy=0;exitPerimeter=0;" edge="1" parent="CQvP9DFuDNjqz4Xd3d7m-1" source="MTdiw1B8AtLcWL_jAtuP-15">
          <mxGeometry width="50" height="50" relative="1" as="geometry">
            <mxPoint x="303" y="300" as="sourcePoint" />
            <mxPoint x="303" y="260" as="targetPoint" />
          </mxGeometry>
        </mxCell>
        <mxCell id="MTdiw1B8AtLcWL_jAtuP-21" value="" style="endArrow=none;html=1;" edge="1" parent="CQvP9DFuDNjqz4Xd3d7m-1">
          <mxGeometry width="50" height="50" relative="1" as="geometry">
            <mxPoint x="343" y="305" as="sourcePoint" />
            <mxPoint x="258" y="305" as="targetPoint" />
          </mxGeometry>
        </mxCell>
        <mxCell id="MTdiw1B8AtLcWL_jAtuP-22" value="&lt;div style=&quot;text-align: center&quot;&gt;&lt;font face=&quot;helvetica&quot;&gt;OUT&lt;/font&gt;&lt;/div&gt;" style="text;whiteSpace=wrap;html=1;" vertex="1" parent="CQvP9DFuDNjqz4Xd3d7m-1">
          <mxGeometry x="310" y="313" width="30" height="30" as="geometry" />
        </mxCell>
        <mxCell id="MTdiw1B8AtLcWL_jAtuP-23" value="&lt;span style=&quot;color: rgb(0 , 0 , 0) ; font-family: &amp;#34;helvetica&amp;#34; ; font-size: 12px ; font-style: normal ; font-weight: 400 ; letter-spacing: normal ; text-align: center ; text-indent: 0px ; text-transform: none ; word-spacing: 0px ; background-color: rgb(248 , 249 , 250) ; display: inline ; float: none&quot;&gt;41.3&lt;/span&gt;" style="text;whiteSpace=wrap;html=1;" vertex="1" parent="CQvP9DFuDNjqz4Xd3d7m-1">
          <mxGeometry x="268" y="313" width="30" height="30" as="geometry" />
        </mxCell>
        <mxCell id="MTdiw1B8AtLcWL_jAtuP-24" value="" style="rounded=0;whiteSpace=wrap;html=1;" vertex="1" parent="CQvP9DFuDNjqz4Xd3d7m-1">
          <mxGeometry x="394" y="160" width="130" height="200" as="geometry" />
        </mxCell>
        <mxCell id="MTdiw1B8AtLcWL_jAtuP-25" value="&lt;span style=&quot;color: rgb(0 , 0 , 0) ; font-family: &amp;#34;helvetica&amp;#34; ; font-size: 12px ; font-style: normal ; font-weight: 400 ; letter-spacing: normal ; text-align: center ; text-indent: 0px ; text-transform: none ; word-spacing: 0px ; background-color: rgb(248 , 249 , 250) ; display: inline ; float: none&quot;&gt;Block #3&lt;/span&gt;" style="text;whiteSpace=wrap;html=1;" vertex="1" parent="CQvP9DFuDNjqz4Xd3d7m-1">
          <mxGeometry x="399" y="165" width="60" height="30" as="geometry" />
        </mxCell>
        <mxCell id="MTdiw1B8AtLcWL_jAtuP-26" value="" style="rounded=0;whiteSpace=wrap;html=1;" vertex="1" parent="CQvP9DFuDNjqz4Xd3d7m-1">
          <mxGeometry x="399" y="200" width="120" height="40" as="geometry" />
        </mxCell>
        <mxCell id="MTdiw1B8AtLcWL_jAtuP-27" value="&lt;span style=&quot;color: rgb(0 , 0 , 0) ; font-family: &amp;#34;helvetica&amp;#34; ; font-size: 12px ; font-style: normal ; font-weight: 400 ; letter-spacing: normal ; text-align: center ; text-indent: 0px ; text-transform: none ; word-spacing: 0px ; background-color: rgb(248 , 249 , 250) ; display: inline ; float: none&quot;&gt;CB&lt;/span&gt;" style="text;whiteSpace=wrap;html=1;" vertex="1" parent="CQvP9DFuDNjqz4Xd3d7m-1">
          <mxGeometry x="404" y="207" width="30" height="30" as="geometry" />
        </mxCell>
        <mxCell id="MTdiw1B8AtLcWL_jAtuP-28" value="&lt;span style=&quot;color: rgb(0 , 0 , 0) ; font-family: &amp;#34;helvetica&amp;#34; ; font-size: 12px ; font-style: normal ; font-weight: 400 ; letter-spacing: normal ; text-align: center ; text-indent: 0px ; text-transform: none ; word-spacing: 0px ; background-color: rgb(248 , 249 , 250) ; display: inline ; float: none&quot;&gt;50.0&lt;/span&gt;" style="text;whiteSpace=wrap;html=1;" vertex="1" parent="CQvP9DFuDNjqz4Xd3d7m-1">
          <mxGeometry x="444" y="207" width="30" height="30" as="geometry" />
        </mxCell>
        <mxCell id="MTdiw1B8AtLcWL_jAtuP-29" value="&lt;div style=&quot;text-align: center&quot;&gt;&lt;font face=&quot;helvetica&quot;&gt;OUT&lt;/font&gt;&lt;/div&gt;" style="text;whiteSpace=wrap;html=1;" vertex="1" parent="CQvP9DFuDNjqz4Xd3d7m-1">
          <mxGeometry x="486" y="207" width="30" height="30" as="geometry" />
        </mxCell>
        <mxCell id="MTdiw1B8AtLcWL_jAtuP-30" value="" style="endArrow=none;html=1;entryX=0.25;entryY=0;entryDx=0;entryDy=0;exitX=0.25;exitY=1;exitDx=0;exitDy=0;" edge="1" parent="CQvP9DFuDNjqz4Xd3d7m-1">
          <mxGeometry width="50" height="50" relative="1" as="geometry">
            <mxPoint x="434" y="240" as="sourcePoint" />
            <mxPoint x="434" y="200" as="targetPoint" />
          </mxGeometry>
        </mxCell>
        <mxCell id="MTdiw1B8AtLcWL_jAtuP-31" value="" style="endArrow=none;html=1;entryX=0.25;entryY=0;entryDx=0;entryDy=0;exitX=0.25;exitY=1;exitDx=0;exitDy=0;" edge="1" parent="CQvP9DFuDNjqz4Xd3d7m-1">
          <mxGeometry width="50" height="50" relative="1" as="geometry">
            <mxPoint x="479" y="240" as="sourcePoint" />
            <mxPoint x="479" y="200" as="targetPoint" />
          </mxGeometry>
        </mxCell>
        <mxCell id="MTdiw1B8AtLcWL_jAtuP-32" value="" style="rounded=0;whiteSpace=wrap;html=1;" vertex="1" parent="CQvP9DFuDNjqz4Xd3d7m-1">
          <mxGeometry x="399" y="260" width="120" height="85" as="geometry" />
        </mxCell>
        <mxCell id="MTdiw1B8AtLcWL_jAtuP-33" value="&lt;span style=&quot;color: rgb(0 , 0 , 0) ; font-family: &amp;#34;helvetica&amp;#34; ; font-size: 12px ; font-style: normal ; font-weight: 400 ; letter-spacing: normal ; text-align: center ; text-indent: 0px ; text-transform: none ; word-spacing: 0px ; background-color: rgb(248 , 249 , 250) ; display: inline ; float: none&quot;&gt;IN&lt;/span&gt;" style="text;whiteSpace=wrap;html=1;" vertex="1" parent="CQvP9DFuDNjqz4Xd3d7m-1">
          <mxGeometry x="407.5" y="272" width="23" height="20" as="geometry" />
        </mxCell>
        <mxCell id="MTdiw1B8AtLcWL_jAtuP-34" value="&lt;span style=&quot;color: rgb(0 , 0 , 0) ; font-family: &amp;#34;helvetica&amp;#34; ; font-size: 12px ; font-style: normal ; font-weight: 400 ; letter-spacing: normal ; text-align: center ; text-indent: 0px ; text-transform: none ; word-spacing: 0px ; background-color: rgb(248 , 249 , 250) ; display: inline ; float: none&quot;&gt;58.7&lt;/span&gt;" style="text;whiteSpace=wrap;html=1;" vertex="1" parent="CQvP9DFuDNjqz4Xd3d7m-1">
          <mxGeometry x="444" y="287.5" width="30" height="30" as="geometry" />
        </mxCell>
        <mxCell id="MTdiw1B8AtLcWL_jAtuP-35" value="&lt;div style=&quot;text-align: center&quot;&gt;&lt;font face=&quot;helvetica&quot;&gt;OUT&lt;/font&gt;&lt;/div&gt;" style="text;whiteSpace=wrap;html=1;" vertex="1" parent="CQvP9DFuDNjqz4Xd3d7m-1">
          <mxGeometry x="486" y="287.5" width="30" height="30" as="geometry" />
        </mxCell>
        <mxCell id="MTdiw1B8AtLcWL_jAtuP-36" value="" style="endArrow=none;html=1;entryX=0.25;entryY=0;entryDx=0;entryDy=0;exitX=0.292;exitY=0.993;exitDx=0;exitDy=0;exitPerimeter=0;" edge="1" parent="CQvP9DFuDNjqz4Xd3d7m-1" source="MTdiw1B8AtLcWL_jAtuP-32">
          <mxGeometry width="50" height="50" relative="1" as="geometry">
            <mxPoint x="434" y="300" as="sourcePoint" />
            <mxPoint x="434" y="260" as="targetPoint" />
          </mxGeometry>
        </mxCell>
        <mxCell id="MTdiw1B8AtLcWL_jAtuP-37" value="" style="endArrow=none;html=1;entryX=0.25;entryY=0;entryDx=0;entryDy=0;exitX=0.672;exitY=1.007;exitDx=0;exitDy=0;exitPerimeter=0;" edge="1" parent="CQvP9DFuDNjqz4Xd3d7m-1" source="MTdiw1B8AtLcWL_jAtuP-32">
          <mxGeometry width="50" height="50" relative="1" as="geometry">
            <mxPoint x="479" y="300" as="sourcePoint" />
            <mxPoint x="479" y="260" as="targetPoint" />
          </mxGeometry>
        </mxCell>
        <mxCell id="MTdiw1B8AtLcWL_jAtuP-38" value="" style="endArrow=none;html=1;entryX=-0.001;entryY=0.509;entryDx=0;entryDy=0;entryPerimeter=0;" edge="1" parent="CQvP9DFuDNjqz4Xd3d7m-1" target="MTdiw1B8AtLcWL_jAtuP-32">
          <mxGeometry width="50" height="50" relative="1" as="geometry">
            <mxPoint x="434" y="303" as="sourcePoint" />
            <mxPoint x="398" y="302.5" as="targetPoint" />
          </mxGeometry>
        </mxCell>
        <mxCell id="MTdiw1B8AtLcWL_jAtuP-41" value="" style="rounded=0;whiteSpace=wrap;html=1;" vertex="1" parent="CQvP9DFuDNjqz4Xd3d7m-1">
          <mxGeometry x="569" y="160" width="130" height="200" as="geometry" />
        </mxCell>
        <mxCell id="MTdiw1B8AtLcWL_jAtuP-42" value="&lt;span style=&quot;color: rgb(0 , 0 , 0) ; font-family: &amp;#34;helvetica&amp;#34; ; font-size: 12px ; font-style: normal ; font-weight: 400 ; letter-spacing: normal ; text-align: center ; text-indent: 0px ; text-transform: none ; word-spacing: 0px ; background-color: rgb(248 , 249 , 250) ; display: inline ; float: none&quot;&gt;Block #4&lt;/span&gt;" style="text;whiteSpace=wrap;html=1;" vertex="1" parent="CQvP9DFuDNjqz4Xd3d7m-1">
          <mxGeometry x="574" y="165" width="60" height="30" as="geometry" />
        </mxCell>
        <mxCell id="MTdiw1B8AtLcWL_jAtuP-43" value="" style="rounded=0;whiteSpace=wrap;html=1;" vertex="1" parent="CQvP9DFuDNjqz4Xd3d7m-1">
          <mxGeometry x="574" y="200" width="120" height="40" as="geometry" />
        </mxCell>
        <mxCell id="MTdiw1B8AtLcWL_jAtuP-44" value="&lt;span style=&quot;color: rgb(0 , 0 , 0) ; font-family: &amp;#34;helvetica&amp;#34; ; font-size: 12px ; font-style: normal ; font-weight: 400 ; letter-spacing: normal ; text-align: center ; text-indent: 0px ; text-transform: none ; word-spacing: 0px ; background-color: rgb(248 , 249 , 250) ; display: inline ; float: none&quot;&gt;CB&lt;/span&gt;" style="text;whiteSpace=wrap;html=1;" vertex="1" parent="CQvP9DFuDNjqz4Xd3d7m-1">
          <mxGeometry x="579" y="207" width="30" height="30" as="geometry" />
        </mxCell>
        <mxCell id="MTdiw1B8AtLcWL_jAtuP-45" value="&lt;span style=&quot;color: rgb(0 , 0 , 0) ; font-family: &amp;#34;helvetica&amp;#34; ; font-size: 12px ; font-style: normal ; font-weight: 400 ; letter-spacing: normal ; text-align: center ; text-indent: 0px ; text-transform: none ; word-spacing: 0px ; background-color: rgb(248 , 249 , 250) ; display: inline ; float: none&quot;&gt;50.0&lt;/span&gt;" style="text;whiteSpace=wrap;html=1;" vertex="1" parent="CQvP9DFuDNjqz4Xd3d7m-1">
          <mxGeometry x="619" y="207" width="30" height="30" as="geometry" />
        </mxCell>
        <mxCell id="MTdiw1B8AtLcWL_jAtuP-46" value="&lt;div style=&quot;text-align: center&quot;&gt;&lt;font face=&quot;helvetica&quot;&gt;OUT&lt;/font&gt;&lt;/div&gt;" style="text;whiteSpace=wrap;html=1;" vertex="1" parent="CQvP9DFuDNjqz4Xd3d7m-1">
          <mxGeometry x="661" y="207" width="30" height="30" as="geometry" />
        </mxCell>
        <mxCell id="MTdiw1B8AtLcWL_jAtuP-47" value="" style="endArrow=none;html=1;entryX=0.25;entryY=0;entryDx=0;entryDy=0;exitX=0.25;exitY=1;exitDx=0;exitDy=0;" edge="1" parent="CQvP9DFuDNjqz4Xd3d7m-1">
          <mxGeometry width="50" height="50" relative="1" as="geometry">
            <mxPoint x="609" y="240" as="sourcePoint" />
            <mxPoint x="609" y="200" as="targetPoint" />
          </mxGeometry>
        </mxCell>
        <mxCell id="MTdiw1B8AtLcWL_jAtuP-48" value="" style="endArrow=none;html=1;entryX=0.25;entryY=0;entryDx=0;entryDy=0;exitX=0.25;exitY=1;exitDx=0;exitDy=0;" edge="1" parent="CQvP9DFuDNjqz4Xd3d7m-1">
          <mxGeometry width="50" height="50" relative="1" as="geometry">
            <mxPoint x="654" y="240" as="sourcePoint" />
            <mxPoint x="654" y="200" as="targetPoint" />
          </mxGeometry>
        </mxCell>
        <mxCell id="MTdiw1B8AtLcWL_jAtuP-49" value="" style="rounded=0;whiteSpace=wrap;html=1;" vertex="1" parent="CQvP9DFuDNjqz4Xd3d7m-1">
          <mxGeometry x="574" y="260" width="120" height="85" as="geometry" />
        </mxCell>
        <mxCell id="MTdiw1B8AtLcWL_jAtuP-50" value="&lt;span style=&quot;color: rgb(0 , 0 , 0) ; font-family: &amp;#34;helvetica&amp;#34; ; font-size: 12px ; font-style: normal ; font-weight: 400 ; letter-spacing: normal ; text-align: center ; text-indent: 0px ; text-transform: none ; word-spacing: 0px ; background-color: rgb(248 , 249 , 250) ; display: inline ; float: none&quot;&gt;IN&lt;/span&gt;" style="text;whiteSpace=wrap;html=1;" vertex="1" parent="CQvP9DFuDNjqz4Xd3d7m-1">
          <mxGeometry x="582.5" y="313.5" width="23" height="30" as="geometry" />
        </mxCell>
        <mxCell id="MTdiw1B8AtLcWL_jAtuP-51" value="&lt;span style=&quot;color: rgb(0 , 0 , 0) ; font-family: &amp;#34;helvetica&amp;#34; ; font-size: 12px ; font-style: normal ; font-weight: 400 ; letter-spacing: normal ; text-align: center ; text-indent: 0px ; text-transform: none ; word-spacing: 0px ; background-color: rgb(248 , 249 , 250) ; display: inline ; float: none&quot;&gt;25.0&lt;/span&gt;" style="text;whiteSpace=wrap;html=1;" vertex="1" parent="CQvP9DFuDNjqz4Xd3d7m-1">
          <mxGeometry x="619" y="272" width="30" height="30" as="geometry" />
        </mxCell>
        <mxCell id="MTdiw1B8AtLcWL_jAtuP-52" value="&lt;div style=&quot;text-align: center&quot;&gt;&lt;font face=&quot;helvetica&quot;&gt;OUT&lt;/font&gt;&lt;/div&gt;" style="text;whiteSpace=wrap;html=1;" vertex="1" parent="CQvP9DFuDNjqz4Xd3d7m-1">
          <mxGeometry x="661" y="272" width="30" height="30" as="geometry" />
        </mxCell>
        <mxCell id="MTdiw1B8AtLcWL_jAtuP-53" value="" style="endArrow=none;html=1;entryX=0.25;entryY=0;entryDx=0;entryDy=0;exitX=0.292;exitY=0.993;exitDx=0;exitDy=0;exitPerimeter=0;" edge="1" parent="CQvP9DFuDNjqz4Xd3d7m-1" source="MTdiw1B8AtLcWL_jAtuP-49">
          <mxGeometry width="50" height="50" relative="1" as="geometry">
            <mxPoint x="609" y="300" as="sourcePoint" />
            <mxPoint x="609" y="260" as="targetPoint" />
          </mxGeometry>
        </mxCell>
        <mxCell id="MTdiw1B8AtLcWL_jAtuP-54" value="" style="endArrow=none;html=1;entryX=0.25;entryY=0;entryDx=0;entryDy=0;exitX=0.672;exitY=1.007;exitDx=0;exitDy=0;exitPerimeter=0;" edge="1" parent="CQvP9DFuDNjqz4Xd3d7m-1" source="MTdiw1B8AtLcWL_jAtuP-49">
          <mxGeometry width="50" height="50" relative="1" as="geometry">
            <mxPoint x="654" y="300" as="sourcePoint" />
            <mxPoint x="654" y="260" as="targetPoint" />
          </mxGeometry>
        </mxCell>
        <mxCell id="MTdiw1B8AtLcWL_jAtuP-55" value="" style="endArrow=none;html=1;entryX=0;entryY=0.535;entryDx=0;entryDy=0;entryPerimeter=0;" edge="1" parent="CQvP9DFuDNjqz4Xd3d7m-1">
          <mxGeometry width="50" height="50" relative="1" as="geometry">
            <mxPoint x="694" y="304" as="sourcePoint" />
            <mxPoint x="574" y="304.4749999999999" as="targetPoint" />
          </mxGeometry>
        </mxCell>
        <mxCell id="MTdiw1B8AtLcWL_jAtuP-56" value="&lt;div style=&quot;text-align: center&quot;&gt;&lt;font face=&quot;helvetica&quot;&gt;OUT&lt;/font&gt;&lt;/div&gt;" style="text;whiteSpace=wrap;html=1;" vertex="1" parent="CQvP9DFuDNjqz4Xd3d7m-1">
          <mxGeometry x="661" y="314" width="30" height="30" as="geometry" />
        </mxCell>
        <mxCell id="MTdiw1B8AtLcWL_jAtuP-57" value="&lt;span style=&quot;color: rgb(0 , 0 , 0) ; font-family: &amp;#34;helvetica&amp;#34; ; font-size: 12px ; font-style: normal ; font-weight: 400 ; letter-spacing: normal ; text-align: center ; text-indent: 0px ; text-transform: none ; word-spacing: 0px ; background-color: rgb(248 , 249 , 250) ; display: inline ; float: none&quot;&gt;66.3&lt;/span&gt;" style="text;whiteSpace=wrap;html=1;" vertex="1" parent="CQvP9DFuDNjqz4Xd3d7m-1">
          <mxGeometry x="619" y="314" width="30" height="30" as="geometry" />
        </mxCell>
        <mxCell id="MTdiw1B8AtLcWL_jAtuP-58" value="&lt;span style=&quot;color: rgb(0 , 0 , 0) ; font-family: &amp;#34;helvetica&amp;#34; ; font-size: 12px ; font-style: normal ; font-weight: 400 ; letter-spacing: normal ; text-align: center ; text-indent: 0px ; text-transform: none ; word-spacing: 0px ; background-color: rgb(248 , 249 , 250) ; display: inline ; float: none&quot;&gt;IN&lt;/span&gt;" style="text;whiteSpace=wrap;html=1;" vertex="1" parent="CQvP9DFuDNjqz4Xd3d7m-1">
          <mxGeometry x="407.5" y="311" width="23" height="20" as="geometry" />
        </mxCell>
        <mxCell id="MTdiw1B8AtLcWL_jAtuP-59" value="&lt;span style=&quot;color: rgb(0 , 0 , 0) ; font-family: &amp;#34;helvetica&amp;#34; ; font-size: 12px ; font-style: normal ; font-weight: 400 ; letter-spacing: normal ; text-align: center ; text-indent: 0px ; text-transform: none ; word-spacing: 0px ; background-color: rgb(248 , 249 , 250) ; display: inline ; float: none&quot;&gt;IN&lt;/span&gt;" style="text;whiteSpace=wrap;html=1;" vertex="1" parent="CQvP9DFuDNjqz4Xd3d7m-1">
          <mxGeometry x="582.5" y="272" width="23" height="30" as="geometry" />
        </mxCell>
        <mxCell id="MTdiw1B8AtLcWL_jAtuP-61" value="" style="endArrow=none;html=1;" edge="1" parent="CQvP9DFuDNjqz4Xd3d7m-1">
          <mxGeometry width="50" height="50" relative="1" as="geometry">
            <mxPoint x="165" y="221" as="sourcePoint" />
            <mxPoint x="192" y="221" as="targetPoint" />
          </mxGeometry>
        </mxCell>
        <mxCell id="MTdiw1B8AtLcWL_jAtuP-62" value="" style="endArrow=none;html=1;" edge="1" parent="CQvP9DFuDNjqz4Xd3d7m-1">
          <mxGeometry width="50" height="50" relative="1" as="geometry">
            <mxPoint x="192" y="221" as="sourcePoint" />
            <mxPoint x="192" y="310" as="targetPoint" />
          </mxGeometry>
        </mxCell>
        <mxCell id="MTdiw1B8AtLcWL_jAtuP-63" value="" style="endArrow=classic;html=1;entryX=-0.002;entryY=0.587;entryDx=0;entryDy=0;entryPerimeter=0;" edge="1" parent="CQvP9DFuDNjqz4Xd3d7m-1" target="MTdiw1B8AtLcWL_jAtuP-15">
          <mxGeometry width="50" height="50" relative="1" as="geometry">
            <mxPoint x="192" y="310" as="sourcePoint" />
            <mxPoint x="220" y="310.00000000000006" as="targetPoint" />
          </mxGeometry>
        </mxCell>
        <mxCell id="MTdiw1B8AtLcWL_jAtuP-64" value="" style="endArrow=none;html=1;exitX=1.001;exitY=0.644;exitDx=0;exitDy=0;exitPerimeter=0;" edge="1" parent="CQvP9DFuDNjqz4Xd3d7m-1" source="MTdiw1B8AtLcWL_jAtuP-9">
          <mxGeometry width="50" height="50" relative="1" as="geometry">
            <mxPoint x="348" y="225.52" as="sourcePoint" />
            <mxPoint x="375" y="225.52" as="targetPoint" />
          </mxGeometry>
        </mxCell>
        <mxCell id="MTdiw1B8AtLcWL_jAtuP-65" value="" style="endArrow=none;html=1;" edge="1" parent="CQvP9DFuDNjqz4Xd3d7m-1">
          <mxGeometry width="50" height="50" relative="1" as="geometry">
            <mxPoint x="375" y="225.52" as="sourcePoint" />
            <mxPoint x="375" y="330" as="targetPoint" />
          </mxGeometry>
        </mxCell>
        <mxCell id="MTdiw1B8AtLcWL_jAtuP-66" value="" style="endArrow=classic;html=1;entryX=-0.003;entryY=0.802;entryDx=0;entryDy=0;entryPerimeter=0;" edge="1" parent="CQvP9DFuDNjqz4Xd3d7m-1">
          <mxGeometry width="50" height="50" relative="1" as="geometry">
            <mxPoint x="375" y="329.52000000000004" as="sourcePoint" />
            <mxPoint x="398.6400000000001" y="329.16999999999996" as="targetPoint" />
          </mxGeometry>
        </mxCell>
        <mxCell id="MTdiw1B8AtLcWL_jAtuP-67" value="" style="endArrow=classic;html=1;exitX=1.002;exitY=0.299;exitDx=0;exitDy=0;exitPerimeter=0;entryX=-0.002;entryY=0.299;entryDx=0;entryDy=0;entryPerimeter=0;" edge="1" parent="CQvP9DFuDNjqz4Xd3d7m-1" source="MTdiw1B8AtLcWL_jAtuP-15" target="MTdiw1B8AtLcWL_jAtuP-32">
          <mxGeometry width="50" height="50" relative="1" as="geometry">
            <mxPoint x="420" y="280" as="sourcePoint" />
            <mxPoint x="470" y="230" as="targetPoint" />
          </mxGeometry>
        </mxCell>
        <mxCell id="MTdiw1B8AtLcWL_jAtuP-68" value="" style="endArrow=none;html=1;" edge="1" parent="CQvP9DFuDNjqz4Xd3d7m-1">
          <mxGeometry width="50" height="50" relative="1" as="geometry">
            <mxPoint x="519" y="225.43" as="sourcePoint" />
            <mxPoint x="546" y="225.43" as="targetPoint" />
          </mxGeometry>
        </mxCell>
        <mxCell id="MTdiw1B8AtLcWL_jAtuP-69" value="" style="endArrow=none;html=1;" edge="1" parent="CQvP9DFuDNjqz4Xd3d7m-1">
          <mxGeometry width="50" height="50" relative="1" as="geometry">
            <mxPoint x="546" y="225.43" as="sourcePoint" />
            <mxPoint x="546" y="290" as="targetPoint" />
          </mxGeometry>
        </mxCell>
        <mxCell id="MTdiw1B8AtLcWL_jAtuP-70" value="" style="endArrow=classic;html=1;entryX=-0.001;entryY=0.355;entryDx=0;entryDy=0;entryPerimeter=0;" edge="1" parent="CQvP9DFuDNjqz4Xd3d7m-1" target="MTdiw1B8AtLcWL_jAtuP-49">
          <mxGeometry width="50" height="50" relative="1" as="geometry">
            <mxPoint x="546" y="290" as="sourcePoint" />
            <mxPoint x="574" y="290.43500000000006" as="targetPoint" />
          </mxGeometry>
        </mxCell>
        <mxCell id="MTdiw1B8AtLcWL_jAtuP-71" value="" style="endArrow=none;html=1;" edge="1" parent="CQvP9DFuDNjqz4Xd3d7m-1">
          <mxGeometry width="50" height="50" relative="1" as="geometry">
            <mxPoint x="343" y="335" as="sourcePoint" />
            <mxPoint x="360" y="335" as="targetPoint" />
          </mxGeometry>
        </mxCell>
        <mxCell id="MTdiw1B8AtLcWL_jAtuP-72" value="" style="endArrow=none;html=1;" edge="1" parent="CQvP9DFuDNjqz4Xd3d7m-1">
          <mxGeometry width="50" height="50" relative="1" as="geometry">
            <mxPoint x="360" y="335" as="sourcePoint" />
            <mxPoint x="360" y="390" as="targetPoint" />
          </mxGeometry>
        </mxCell>
        <mxCell id="MTdiw1B8AtLcWL_jAtuP-73" value="" style="endArrow=none;html=1;exitX=1.001;exitY=0.644;exitDx=0;exitDy=0;exitPerimeter=0;" edge="1" parent="CQvP9DFuDNjqz4Xd3d7m-1">
          <mxGeometry width="50" height="50" relative="1" as="geometry">
            <mxPoint x="360.12" y="390.24" as="sourcePoint" />
            <mxPoint x="550" y="390" as="targetPoint" />
          </mxGeometry>
        </mxCell>
        <mxCell id="MTdiw1B8AtLcWL_jAtuP-74" value="" style="endArrow=none;html=1;" edge="1" parent="CQvP9DFuDNjqz4Xd3d7m-1">
          <mxGeometry width="50" height="50" relative="1" as="geometry">
            <mxPoint x="550" y="335" as="sourcePoint" />
            <mxPoint x="550" y="390" as="targetPoint" />
          </mxGeometry>
        </mxCell>
        <mxCell id="MTdiw1B8AtLcWL_jAtuP-75" value="" style="endArrow=classic;html=1;entryX=-0.001;entryY=0.355;entryDx=0;entryDy=0;entryPerimeter=0;" edge="1" parent="CQvP9DFuDNjqz4Xd3d7m-1">
          <mxGeometry width="50" height="50" relative="1" as="geometry">
            <mxPoint x="550" y="335" as="sourcePoint" />
            <mxPoint x="573.9999999999999" y="335.17500000000007" as="targetPoint" />
          </mxGeometry>
        </mxCell>
      </root>
    </mxGraphModel>
  </diagram>
</mxfile>
